<svg width="104" height="209" viewBox="0 0 104 209" fill="none" xmlns="http://www.w3.org/2000/svg">
<g clip-path="url(#clip0_520_190)">
<path d="M4.76904 172.022H99.2313V42.9136C95.7349 19.7177 75.5295 2.37427 52.0061 2.37427C28.4827 2.37427 8.27733 19.7177 4.76904 42.9136V172.022Z" fill="#D9D7BE" stroke="#B4B0A0" stroke-width="4" stroke-miterlimit="10"/>
<path d="M13.272 22.1394V171.761" stroke="#B4B0A0" stroke-miterlimit="10"/>
<path d="M27.9834 9.04565V171.974" stroke="#B4B0A0" stroke-miterlimit="10"/>
<path d="M50.0439 2.49292L50.2461 171.915" stroke="#B4B0A0" stroke-miterlimit="10"/>
<path d="M72.4258 6.89722L72.7112 171.559" stroke="#B4B0A0" stroke-miterlimit="10"/>
<path d="M89.2651 19.979V171.939" stroke="#B4B0A0" stroke-miterlimit="10"/>
<path d="M80.8337 100.298C84.6432 100.298 87.7313 97.2151 87.7313 93.4125C87.7313 89.6099 84.6432 86.5273 80.8337 86.5273C77.0242 86.5273 73.936 89.6099 73.936 93.4125C73.936 97.2151 77.0242 100.298 80.8337 100.298Z" fill="#3C3333"/>
<path d="M10.4059 186.801C10.4059 186.801 10.4059 186.908 10.3702 186.956C10.3702 187.514 10.1918 187.846 9.19284 187.822C8.51497 187.799 7.61114 187.799 7.0403 187.858C6.3981 187.81 5.81537 187.81 5.28021 187.834C4.56666 187.858 3.92446 188.345 3.88879 188.95C3.85311 189.532 4.04339 189.864 3.88879 190.541C4.0315 191.194 3.82932 191.882 3.90068 192.464C3.75797 193.129 3.98393 193.758 3.91257 194.387C3.73418 195.099 3.85311 195.728 3.92446 196.31C3.99582 197.022 4.04339 197.675 3.93636 198.257C4.00771 198.862 3.84121 199.575 3.94825 200.18C4.05528 200.916 3.92446 201.45 3.96014 202.127C3.81743 202.792 4.07907 203.397 3.93636 204.074C4.00771 204.655 3.50822 204.94 2.93738 204.94H2.72332C2.61629 204.964 2.50925 204.988 2.40222 204.988C2.1168 204.988 1.76003 204.893 1.46271 204.94C1.39136 204.94 1.32 204.964 1.24865 204.964C0.606452 204.964 0.237784 204.584 0.237784 204.085C0.273462 203.634 0.273462 203.456 0.190214 202.946C0.118859 202.839 0.118859 202.744 0.118859 202.637C0.118859 202.412 0.225892 202.127 0.190214 201.83C0.261569 201.45 0.154537 201.201 0.190214 200.738C0.297247 200.382 0.118859 200.026 0.190214 199.622C0.225892 199.195 0.154537 198.969 0.190214 198.506C0.225892 198.328 0.154537 198.019 0.142644 197.723C0.142644 197.592 0.142644 197.497 0.178322 197.39C0.142644 197.319 0.106967 197.212 0.106967 197.141C0.106967 196.892 0.249677 196.631 0.178322 196.31C0.213999 196.037 0.142644 195.503 0.178322 195.194C0.142644 194.921 0.106967 194.743 0.106967 194.506C0.106967 194.375 0.106967 194.256 0.178322 194.078C0.321032 193.651 0.178322 193.449 0.178322 192.962C0.106967 192.808 0.0712891 192.654 0.0712891 192.488C0.0712891 192.286 0.106967 192.084 0.178322 191.858C0.142644 191.787 0.106967 191.704 0.106967 191.633C0.106967 191.36 0.285354 191.004 0.178322 190.743C0.321032 190.363 0.249677 189.983 0.178322 189.65C0.321032 189.401 0.142644 188.914 0.178322 188.535C0.142644 188.38 0.0712891 188.155 0.0712891 187.929C0.0712891 187.751 0.106967 187.573 0.178322 187.419C0.142644 187.264 0.142644 187.086 0.142644 186.884C0.142644 186.683 0.142644 186.481 0.178322 186.303C0.213999 185.721 0.570775 185.436 1.39136 185.436H3.36551C3.97203 185.448 4.51909 185.436 4.94722 185.424H5.30399C5.83916 185.519 6.67163 185.448 7.24247 185.424C7.56357 185.401 7.84899 185.377 8.20577 185.365C8.52686 185.365 8.88364 185.389 9.25231 185.436C10.0372 185.377 10.4416 185.579 10.4416 186.089V186.291C10.4416 186.54 10.4772 186.671 10.4772 186.778L10.4059 186.801Z" fill="#444440"/>
<path d="M104 205.094C104 205.344 103.928 205.522 103.928 205.759V205.866C103.857 206.317 103.857 206.602 103.928 206.982C103.928 207.053 103.964 207.16 103.964 207.231C103.964 207.54 103.857 207.789 103.94 208.098C103.94 208.585 103.619 208.964 102.906 208.964H102.727C102.085 208.893 101.574 208.964 100.789 208.964H100.539C100.218 208.964 99.8255 208.941 99.4212 208.941C99.2428 208.941 99.0287 208.941 98.8147 208.964C98.672 208.988 98.4936 208.988 98.3865 208.988C97.9941 208.988 97.673 208.941 97.2686 208.941C97.1616 208.941 97.0189 208.941 96.8762 208.964C96.6978 208.988 96.4837 208.988 96.2697 208.988H96.127C95.8415 208.988 95.5204 208.988 95.235 208.988C95.0923 208.988 94.9496 208.988 94.8426 208.988H94.7712C93.9506 208.988 93.796 208.537 93.689 208.086C93.6533 208.062 93.6533 208.038 93.6533 208.015C93.6533 207.884 93.689 207.706 93.689 207.564C93.689 207.54 93.689 207.492 93.689 207.469C93.689 206.887 94.1171 206.555 94.902 206.578C95.6513 206.519 96.1983 206.519 97.0546 206.578C97.8038 206.519 98.2082 206.555 99.1358 206.543C99.8493 206.495 100.17 206.056 100.206 205.474C100.17 204.786 100.266 204.513 100.123 203.907C100.266 203.278 100.123 202.697 100.182 201.984C100.04 201.355 100.242 200.69 100.17 200.037C100.17 199.385 100.087 198.791 100.159 198.114C100.23 197.509 100.254 196.903 100.147 196.167C100.218 195.515 100.147 194.897 100.135 194.244C100.135 193.663 100.087 192.927 100.123 192.298C100.087 191.692 100.123 190.98 100.111 190.351C100.111 189.923 100.396 189.484 101.181 189.484H101.609C101.859 189.484 102.073 189.484 102.287 189.484C102.394 189.484 102.501 189.484 102.608 189.484C103.465 189.532 103.833 189.579 103.833 190.339C103.869 190.493 103.905 190.719 103.905 190.921C103.905 191.146 103.869 191.348 103.833 191.478C103.655 191.906 103.833 192.214 103.833 192.511V192.582C103.869 192.654 103.869 192.737 103.869 192.808C103.869 193.057 103.833 193.342 103.833 193.544V193.675C103.869 193.77 103.869 193.876 103.869 193.948C103.869 194.256 103.762 194.506 103.833 194.779V194.957C103.833 195.028 103.833 195.111 103.833 195.206C103.833 195.36 103.833 195.538 103.833 195.693V196.096C103.833 196.452 103.738 196.678 103.833 197.01C103.691 197.319 103.833 197.592 103.833 197.841C103.833 197.889 103.833 197.948 103.798 197.996C103.833 198.482 103.798 198.803 103.845 199.206C103.81 199.515 103.702 199.895 103.821 200.299C103.857 200.346 103.857 200.429 103.857 200.5C103.857 200.809 103.679 201.189 103.833 201.414C103.869 201.486 103.905 201.593 103.905 201.664C103.905 201.972 103.726 202.245 103.833 202.53C103.869 202.661 103.905 202.756 103.905 202.886C103.905 203.088 103.869 203.29 103.869 203.516V203.67C103.869 203.895 103.905 204.157 103.917 204.382C103.917 204.513 103.917 204.631 103.881 204.762C103.917 204.893 103.952 205.011 103.952 205.118L104 205.094Z" fill="#444440"/>
</g>
<defs>
<clipPath id="clip0_520_190">
<rect width="104" height="209" fill="white"/>
</clipPath>
</defs>
</svg>
