<svg width="251" height="76" viewBox="0 0 251 76" fill="none" xmlns="http://www.w3.org/2000/svg">
<path d="M70.4619 44.3444H67.4466C65.8892 44.3444 63.2716 44.4105 63.0396 44.4105C62.3106 44.4105 62.1118 44.1462 62.1118 43.3531C62.145 41.5027 62.1781 39.4209 62.1781 37.8348V27.4592C62.1781 25.8401 62.145 23.8575 62.1118 21.9409C62.1118 21.1479 62.3106 20.8835 63.0396 20.8835C63.2716 20.8835 65.8892 20.9496 67.4466 20.9496H71.5222C78.083 20.9496 81.993 24.5844 81.993 31.9531C81.993 39.6522 77.7517 44.3444 70.4619 44.3444ZM66.0218 25.5096V39.9496C66.0218 40.7757 66.1875 40.9409 67.0158 40.9409H70.3625C75.5648 40.9409 78.083 37.4053 78.083 32.1514C78.083 27.6905 75.9624 24.5183 71.1578 24.5183H67.0158C66.1875 24.5183 66.0218 24.6835 66.0218 25.5096ZM92.9124 44.3444H89.8971C88.3397 44.3444 85.722 44.4105 85.4901 44.4105C84.7611 44.4105 84.5623 44.1462 84.5623 43.3531C84.5955 41.5027 84.6286 39.4209 84.6286 37.8348V27.4592C84.6286 25.8401 84.5955 23.8575 84.5623 21.9409C84.5623 21.1479 84.7611 20.8835 85.4901 20.8835C85.722 20.8835 88.3397 20.9496 89.8971 20.9496H93.9727C100.534 20.9496 104.444 24.5844 104.444 31.9531C104.444 39.6522 100.202 44.3444 92.9124 44.3444ZM88.4723 25.5096V39.9496C88.4723 40.7757 88.638 40.9409 89.4663 40.9409H92.813C98.0153 40.9409 100.534 37.4053 100.534 32.1514C100.534 27.6905 98.4129 24.5183 93.6083 24.5183H89.4663C88.638 24.5183 88.4723 24.6835 88.4723 25.5096ZM114.999 44.3444H112.348C110.791 44.3444 108.173 44.4105 107.941 44.4105C107.245 44.4105 107.013 44.1792 107.013 43.4853C107.013 43.254 107.079 39.6853 107.079 37.8348V27.4592C107.079 25.8401 107.013 22.5027 107.013 21.9409C107.013 21.1479 107.212 20.8835 107.941 20.8835C108.305 20.8835 110.791 20.9496 112.348 20.9496H114.899C119.671 20.9496 122.487 22.2053 122.487 26.2366C122.487 28.1531 122.057 29.9705 120.334 31.2262C120.068 31.4244 119.903 31.5566 119.903 31.6557C119.903 31.8209 120.068 31.9201 120.433 32.0522C122.355 32.8122 123.614 34.4644 123.614 37.174C123.614 42.0975 120.334 44.3444 114.999 44.3444ZM110.824 25.1792V29.5079C110.824 30.334 110.989 30.4992 111.818 30.4992H114.469C116.921 30.4992 118.677 29.574 118.677 26.9305C118.677 24.7496 116.887 24.1879 114.866 24.1879H111.818C110.989 24.1879 110.824 24.3531 110.824 25.1792ZM110.824 34.6627V40.1809C110.824 41.007 110.989 41.1722 111.818 41.1722H114.932C117.683 41.1722 119.704 39.8835 119.704 37.1409C119.704 34.6296 118.08 33.6714 115.529 33.6714H111.818C110.989 33.6714 110.824 33.8366 110.824 34.6627ZM139.101 38.8262H130.982C130.121 38.8262 129.889 38.8922 129.591 39.6192C129.127 40.7096 128.696 41.8331 128.133 43.4192C127.834 44.2122 127.669 44.3444 126.807 44.3444H124.488C123.958 44.3444 123.726 44.2783 123.726 44.014C123.726 43.8818 123.792 43.7166 123.925 43.4522C124.952 41.1392 125.681 39.487 126.377 37.8679L131.115 26.6662C131.711 25.2453 132.407 23.6592 133.103 21.8748C133.401 21.0818 133.567 20.9496 134.428 20.9496H135.853C136.715 20.9496 136.881 21.0818 137.179 21.8748C137.875 23.6592 138.537 25.2453 139.134 26.6331L143.905 37.8018C144.634 39.5201 145.363 41.1722 146.39 43.4522C146.523 43.7166 146.589 43.8818 146.589 44.014C146.589 44.2783 146.357 44.3444 145.827 44.3444H143.276C142.414 44.3444 142.248 44.2122 141.95 43.4192C141.387 41.8331 140.956 40.7096 140.492 39.6192C140.194 38.8922 139.994 38.8262 139.101 38.8262ZM134.694 27.1618L131.579 34.7288C131.479 34.9601 131.446 35.1583 131.446 35.2905C131.446 35.5879 131.678 35.654 132.208 35.654H137.875C138.405 35.654 138.637 35.5879 138.637 35.2905C138.637 35.1583 138.604 34.9601 138.504 34.7288L135.423 27.1618C135.29 26.8314 135.191 26.6331 135.058 26.6331C134.959 26.6331 134.826 26.7983 134.694 27.1618ZM156.177 44.3444H153.592C152.035 44.3444 149.417 44.4105 149.185 44.4105C148.489 44.4105 148.257 44.1792 148.257 43.4853C148.257 43.254 148.324 39.6853 148.324 37.8348V27.5583C148.324 25.6418 148.224 22.007 148.224 21.7757C148.224 21.0818 148.423 20.9496 149.185 20.9496H151.306C152.068 20.9496 152.267 21.0818 152.267 21.7757C152.267 22.007 152.167 25.6418 152.167 27.5583V39.8835C152.167 40.7096 152.333 40.8748 153.162 40.8748H156.177C157.767 40.8748 160.75 40.7757 160.981 40.7757C161.677 40.7757 161.81 40.974 161.81 41.734V43.4522C161.81 44.2122 161.677 44.4105 160.981 44.4105C160.75 44.4105 157.767 44.3444 156.177 44.3444ZM172.382 44.3444H169.797C168.24 44.3444 165.622 44.4105 165.39 44.4105C164.694 44.4105 164.462 44.1792 164.462 43.4853C164.462 43.254 164.529 39.6853 164.529 37.8348V27.5583C164.529 25.6418 164.429 22.007 164.429 21.7757C164.429 21.0818 164.628 20.9496 165.39 20.9496H167.511C168.273 20.9496 168.472 21.0818 168.472 21.7757C168.472 22.007 168.372 25.6418 168.372 27.5583V39.8835C168.372 40.7096 168.538 40.8748 169.366 40.8748H172.382C173.972 40.8748 176.954 40.7757 177.186 40.7757C177.882 40.7757 178.015 40.974 178.015 41.734V43.4522C178.015 44.2122 177.882 44.4105 177.186 44.4105C176.954 44.4105 173.972 44.3444 172.382 44.3444ZM186.334 25.5096V37.7357C186.334 39.6522 186.434 43.287 186.434 43.5183C186.434 44.2122 186.235 44.3444 185.473 44.3444H183.385C182.623 44.3444 182.424 44.2122 182.424 43.5183C182.424 43.287 182.524 39.6522 182.524 37.7357V25.5096C182.524 24.6835 182.358 24.5183 181.529 24.5183H180.502C179.111 24.5183 176.261 24.6175 176.029 24.6175C175.333 24.6175 175.201 24.4192 175.201 23.6592V21.8418C175.201 21.0818 175.333 20.8835 176.029 20.8835C176.261 20.8835 179.276 20.9496 180.834 20.9496H188.057C189.615 20.9496 192.63 20.8835 192.862 20.8835C193.558 20.8835 193.69 21.0818 193.69 21.8418V23.6592C193.69 24.4192 193.558 24.6175 192.862 24.6175C192.63 24.6175 189.78 24.5183 188.389 24.5183H187.328C186.5 24.5183 186.334 24.6835 186.334 25.5096ZM206.412 38.8262H198.294C197.433 38.8262 197.201 38.8922 196.903 39.6192C196.439 40.7096 196.008 41.8331 195.445 43.4192C195.146 44.2122 194.981 44.3444 194.119 44.3444H191.8C191.27 44.3444 191.038 44.2783 191.038 44.014C191.038 43.8818 191.104 43.7166 191.236 43.4522C192.264 41.1392 192.993 39.487 193.689 37.8679L198.427 26.6662C199.023 25.2453 199.719 23.6592 200.415 21.8748C200.713 21.0818 200.879 20.9496 201.74 20.9496H203.165C204.027 20.9496 204.192 21.0818 204.491 21.8748C205.186 23.6592 205.849 25.2453 206.446 26.6331L211.217 37.8018C211.946 39.5201 212.675 41.1722 213.702 43.4522C213.835 43.7166 213.901 43.8818 213.901 44.014C213.901 44.2783 213.669 44.3444 213.139 44.3444H210.588C209.726 44.3444 209.56 44.2122 209.262 43.4192C208.699 41.8331 208.268 40.7096 207.804 39.6192C207.506 38.8922 207.307 38.8262 206.412 38.8262ZM202.005 27.1618L198.891 34.7288C198.791 34.9601 198.758 35.1583 198.758 35.2905C198.758 35.5879 198.99 35.654 199.52 35.654H205.186C205.717 35.654 205.949 35.5879 205.949 35.2905C205.949 35.1583 205.915 34.9601 205.816 34.7288L202.734 27.1618C202.602 26.8314 202.503 26.6331 202.37 26.6331C202.271 26.6331 202.138 26.7983 202.005 27.1618ZM223.489 44.3444H220.904C219.347 44.3444 216.729 44.4105 216.497 44.4105C215.801 44.4105 215.569 44.1792 215.569 43.4853C215.569 43.254 215.636 39.6853 215.636 37.8348V27.5583C215.636 25.6418 215.536 22.007 215.536 21.7757C215.536 21.0818 215.735 20.9496 216.497 20.9496H218.618C219.38 20.9496 219.579 21.0818 219.579 21.7757C219.579 22.007 219.479 25.6418 219.479 27.5583V39.8835C219.479 40.7096 219.645 40.8748 220.473 40.8748H223.489C225.079 40.8748 228.061 40.7757 228.293 40.7757C228.989 40.7757 229.122 40.974 229.122 41.734V43.4522C229.122 44.2122 228.989 44.4105 228.293 44.4105C228.061 44.4105 225.079 44.3444 223.489 44.3444ZM235.619 36.9757V37.7357C235.619 39.6522 235.718 43.287 235.718 43.5183C235.718 44.2122 235.519 44.3444 234.757 44.3444H232.703C231.941 44.3444 231.742 44.2122 231.742 43.5183C231.742 43.287 231.841 39.6522 231.841 37.7357V27.5583C231.841 25.6418 231.742 22.007 231.742 21.7757C231.742 21.0818 231.941 20.9496 232.703 20.9496H234.757C235.519 20.9496 235.718 21.0818 235.718 21.7757C235.718 22.007 235.619 25.6418 235.619 27.5583V30.334C235.619 30.6975 235.685 30.8627 235.851 30.8627C235.95 30.8627 236.116 30.7966 236.281 30.5983L239.893 26.6992C241.252 25.2122 242.544 23.8244 244.366 21.7096C244.93 21.0818 245.195 20.9496 246.023 20.9496H249.039C249.469 20.9496 249.668 21.0488 249.668 21.247C249.668 21.3792 249.602 21.5114 249.403 21.7096C246.785 24.3862 245.361 25.9062 243.671 27.6575L242.146 29.2766C241.848 29.607 241.683 29.8383 241.683 30.0696C241.683 30.2679 241.815 30.4992 242.014 30.8296L245.592 36.6122C246.852 38.4957 248.045 40.3462 250.066 43.5183C250.231 43.7827 250.331 43.9479 250.331 44.0801C250.331 44.2783 250.099 44.3444 249.602 44.3444H246.885C246.023 44.3444 245.824 44.2122 245.394 43.4853C244.002 41.0401 242.942 39.3548 241.815 37.6035L239.33 33.6714C239.098 33.3079 238.932 33.1427 238.767 33.1427C238.568 33.1427 238.402 33.2748 238.137 33.5722L236.083 35.7862C235.718 36.1827 235.619 36.414 235.619 36.9757Z" fill="white"/>
<path d="M73.7594 8.20137C73.7594 8.42607 73.163 8.92833 72.9376 8.92833C72.8051 8.92833 72.7256 8.79615 72.6461 8.71685C72.1026 8.04276 71.5195 7.40833 70.8568 6.83998C70.7772 6.76068 70.6579 6.66815 70.6579 6.5492C70.6579 6.35094 71.2014 5.83546 71.4399 5.83546C71.5592 5.83546 71.6387 5.92798 71.7713 6.04694C72.0761 6.29807 73.7594 7.92381 73.7594 8.20137ZM65.0647 6.46989C65.0647 6.60207 64.8394 6.60207 64.7864 6.60207C64.6803 6.61529 64.6273 6.69459 64.508 6.87963C64.4683 6.9325 64.4285 6.99859 64.3755 7.06468C64.1767 7.34224 63.1296 8.49215 62.8115 8.49215C62.5199 8.49215 61.9897 8.04276 61.9897 7.85772C61.9897 7.7652 62.1886 7.61981 62.2681 7.56694C62.8513 7.10433 63.2886 6.65494 63.6863 6.0205C63.7525 5.91476 63.8056 5.79581 63.9381 5.79581C64.0441 5.79581 64.349 5.96763 64.5876 6.11302C64.6803 6.16589 64.7731 6.21876 64.8261 6.2452C64.9189 6.28485 65.0647 6.36415 65.0647 6.46989ZM67.7818 11.8626C67.8746 11.9287 67.9409 11.9815 68.0601 11.9815C68.1794 11.9815 68.2457 11.9419 68.3385 11.8758C68.5108 11.7436 69.306 11.1356 69.306 10.9506C69.306 10.8977 69.2132 10.8845 69.0409 10.8845H67.2119C67.1058 10.8977 67.0131 10.9242 67.0131 11.0431C67.0131 11.096 67.0396 11.1356 67.0661 11.1621C67.3046 11.4396 67.4902 11.6379 67.7818 11.8626ZM68.3782 5.46537H67.6758C67.4239 5.46537 67.3047 5.57111 67.2781 5.82224C67.0926 7.5405 66.4034 8.61111 64.8924 9.48346C64.6273 9.62885 63.9514 9.99894 63.6598 9.99894C63.3814 9.99894 63.0103 9.47024 63.0103 9.20589C63.0103 9.03407 63.1826 8.99442 63.3284 8.94155C64.7864 8.39963 65.9527 7.44798 66.0588 5.80902C66.072 5.57111 65.9527 5.46537 65.7009 5.46537H63.9779C63.461 5.46537 62.9308 5.50502 62.4139 5.50502C62.0958 5.50502 62.0958 5.37285 62.0958 4.91024C62.0958 4.44763 62.0958 4.31546 62.4139 4.31546C62.9308 4.31546 63.461 4.35511 63.9779 4.35511H66.8938C67.1456 4.35511 67.2516 4.24937 67.2649 3.99824C67.2649 3.76033 67.2516 3.52242 67.2119 3.2845V3.15233C67.2119 2.99372 67.3444 2.9805 67.4637 2.9805C67.6758 2.9805 68.3782 3.04659 68.6036 3.07302C68.7228 3.08624 68.9747 3.08624 68.9747 3.24485C68.9747 3.32415 68.9084 3.36381 68.8156 3.42989C68.6566 3.54885 68.6566 3.73389 68.6698 4.01146C68.6698 4.26259 68.7891 4.35511 69.0409 4.35511H71.9171C72.434 4.35511 72.9642 4.31546 73.4811 4.31546C73.7992 4.31546 73.7992 4.44763 73.7992 4.91024C73.7992 5.37285 73.7992 5.50502 73.4811 5.50502C72.9642 5.50502 72.434 5.46537 71.9171 5.46537H70.4459C70.1808 5.46537 70.0748 5.58433 70.0748 5.83546V7.17042C70.0748 7.43476 70.1013 7.71233 70.1013 7.98989C70.1013 9.20589 69.253 9.24555 68.2722 9.24555C68.1529 9.24555 68.0469 9.23233 67.9276 9.20589C67.8878 9.20589 67.8878 9.21911 67.8878 9.24555C67.9011 9.25876 67.9011 9.27198 67.9011 9.29842C67.9011 9.43059 67.7023 9.45702 67.5962 9.48346C67.5697 9.48346 67.5432 9.50989 67.5167 9.52311C67.477 9.54955 67.4504 9.5892 67.4504 9.64207C67.4504 9.74781 67.583 9.78746 67.6758 9.80068H69.2928C69.7434 9.80068 70.1808 9.77424 70.6314 9.77424C71.1483 9.77424 71.3604 10.4615 71.3604 10.5673C71.3604 11.0167 69.9157 12.2327 69.5313 12.5102C69.4783 12.5631 69.4386 12.6028 69.4386 12.6821C69.4386 12.7614 69.5048 12.8142 69.5711 12.8539C70.8568 13.3033 72.0364 13.528 73.3883 13.5676C73.6269 13.5676 73.7196 13.6337 73.7196 13.8981C73.7196 14.2153 73.5871 14.8233 73.0834 14.8233C71.6918 14.8233 69.5976 14.2417 68.365 13.5941C68.2589 13.5412 68.1794 13.5015 68.0601 13.5015C67.9541 13.5015 67.8613 13.528 67.7553 13.5809C66.6552 14.0831 65.5021 14.3739 64.296 14.5457C63.9381 14.5986 63.0501 14.7175 62.7187 14.7175C62.1886 14.7175 62.0693 14.017 62.0693 13.8188C62.0693 13.5544 62.3344 13.5676 62.5199 13.5544C63.8983 13.5015 65.343 13.3297 66.6287 12.8275C66.7082 12.7878 66.7745 12.7482 66.7745 12.6424C66.7745 12.5763 66.7347 12.5235 66.6817 12.4706C66.3901 12.2195 66.125 11.9419 65.8997 11.6247C65.8202 11.5322 65.7407 11.4661 65.6214 11.4661C65.5419 11.4661 65.4756 11.4925 65.4093 11.5322C64.8526 11.889 63.5935 12.5102 62.9308 12.5102C62.6259 12.5102 62.4006 11.8362 62.4006 11.6775C62.4006 11.4793 62.6657 11.4396 62.8115 11.4C64.1634 11.096 65.7407 10.1972 66.4564 8.9812C66.4961 8.90189 66.5889 8.74328 66.695 8.74328C66.7877 8.74328 67.1323 8.87546 67.3444 8.95476C67.3709 8.96798 67.477 9.00763 67.5167 9.00763C67.5432 9.00763 67.583 8.99442 67.583 8.94155V8.88868C67.5035 8.69042 67.4504 8.41285 67.4504 8.20137C67.4504 8.02955 67.53 7.96346 67.689 7.96346C67.7818 7.96346 68.0071 7.98989 68.2324 7.98989C68.7891 7.98989 68.7493 7.72555 68.7493 7.21007V5.83546C68.7493 5.58433 68.6433 5.46537 68.3782 5.46537ZM78.8622 3.46955C79.0478 3.46955 80.1081 3.60172 80.2672 3.64137C80.3467 3.66781 80.4262 3.72068 80.4262 3.79998C80.4262 3.86607 80.3865 3.91894 80.3335 3.97181C80.1744 4.13042 80.1479 4.1172 80.0949 4.67233C80.0684 4.85737 80.0021 5.46537 80.0021 5.62398C80.0021 5.76937 80.0551 5.79581 80.2009 5.82224C80.2804 5.84868 80.7178 6.36415 80.7178 6.53598C80.7178 6.64172 80.5985 6.73424 80.5323 6.81355C80.3732 6.98537 79.8828 7.60659 79.8828 7.83128C79.8828 7.96346 79.8961 8.04276 79.9623 8.04276C80.0154 8.04276 80.0949 7.96346 80.1346 7.92381C81.1154 7.07789 82.1493 6.35094 83.5012 6.35094C85.3038 6.35094 86.5894 7.85772 86.5894 9.60242C86.5894 11.5982 85.0917 12.8671 83.3686 13.5676C83.1301 13.6734 82.5469 13.8849 82.2818 13.8849C81.9107 13.8849 81.5528 13.0654 81.5528 12.7878C81.5528 12.5631 81.7119 12.5235 81.8974 12.4838C83.3421 12.1534 85.1182 11.3868 85.1182 9.65528C85.1182 8.66398 84.4555 7.71233 83.3819 7.71233C82.2553 7.71233 80.7178 8.73007 80.0154 9.5892C79.8828 9.74781 79.8563 9.91963 79.8563 10.1179C79.8563 10.8977 79.8696 11.6775 79.9093 12.4442C79.9226 12.8142 80.0021 14.0699 80.0021 14.2153C80.0021 14.3607 79.8828 14.44 79.008 14.44C78.6237 14.44 78.4514 14.4268 78.4514 14.1624C78.4514 14.0567 78.4646 13.8055 78.4646 13.7395C78.4779 13.3297 78.5044 12.7614 78.5044 12.6953C78.5176 12.2723 78.5176 11.8362 78.5176 11.4132C78.5176 11.3207 78.4911 11.2017 78.3851 11.2017C78.2791 11.2017 78.1863 11.3471 78.12 11.4132C77.8682 11.7172 77.3248 12.4045 77.126 12.7085C77.0862 12.7878 77.0199 12.8935 76.9271 12.8935C76.6886 12.8935 75.9331 12.1269 75.9331 11.8758C75.9331 11.7304 76.1584 11.5322 76.2644 11.4264C77.0464 10.6334 78.0272 9.47024 78.5044 8.47894C78.5839 8.32033 78.5839 8.16172 78.5839 7.96346V7.79163C78.5839 7.65946 78.5309 7.51407 78.3718 7.51407C78.2923 7.51407 78.2128 7.5405 78.1465 7.55372C77.8947 7.61981 76.9271 7.87094 76.7416 7.87094C76.556 7.87094 76.4898 7.69911 76.4367 7.55372C76.3705 7.36868 76.2247 6.73424 76.2247 6.5492C76.2247 6.35094 76.3572 6.3245 76.5295 6.3245H76.7151C77.2055 6.3245 77.6959 6.28485 78.173 6.19233C78.3453 6.16589 78.4911 6.12624 78.5839 5.96763C78.6634 5.83546 78.6502 5.58433 78.6502 5.42572C78.6502 4.97633 78.6767 4.52694 78.6767 4.07755C78.6767 3.8925 78.6634 3.74711 78.6634 3.65459C78.6634 3.5092 78.7297 3.46955 78.8622 3.46955ZM90.1415 8.74328C90.1415 8.57146 90.2873 8.50537 90.4331 8.46572C90.8705 8.35998 91.2283 8.22781 91.6525 8.0692C92.8321 7.64624 94.2238 7.11755 95.4697 7.11755C97.0204 7.11755 98.2265 8.10885 98.2265 9.70815C98.2265 11.3471 97.0204 12.3516 95.6287 12.9464C95.1648 13.1447 94.078 13.5015 93.5876 13.5015C93.1502 13.5015 92.9646 12.6028 92.9646 12.497C92.9646 12.2723 93.2165 12.2459 93.3888 12.2327C94.1708 12.1534 94.9528 11.9551 95.6552 11.5718C96.3577 11.1753 96.9541 10.5276 96.9541 9.68172C96.9541 8.82259 96.2782 8.34676 95.4697 8.34676C94.184 8.34676 92.461 9.07372 91.3344 9.68172C91.2283 9.74781 91.1091 9.81389 90.9633 9.81389C90.6187 9.81389 90.1415 9.02085 90.1415 8.74328ZM107.372 11.7965C107.465 11.7965 107.557 11.9155 107.61 11.9815C108.194 12.6292 109.201 12.7482 110.009 12.7482C110.699 12.7482 111.242 12.6821 111.892 12.4838C111.931 12.4706 111.984 12.4574 112.024 12.4574C112.249 12.4574 112.249 12.7614 112.249 13.2901C112.249 13.5544 112.263 13.8584 112.104 13.9509C111.865 14.0567 110.367 14.1228 110.036 14.1228C109.161 14.1228 107.942 14.017 107.2 13.528C106.988 13.3826 106.55 13.0522 106.55 12.7746C106.55 12.5763 107.16 11.7965 107.372 11.7965ZM108.366 8.76972C108.366 7.63302 108.605 7.71233 109.227 7.71233C109.93 7.71233 111.229 7.83129 111.892 8.08242C112.011 8.12207 112.077 8.20137 112.077 8.34676C112.077 8.54502 111.918 9.08694 111.825 9.27198C111.772 9.39094 111.719 9.44381 111.587 9.44381C111.494 9.44381 111.401 9.41737 111.308 9.37772C110.646 9.12659 109.917 9.04728 109.201 9.04728C109.029 9.04728 108.87 9.0605 108.697 9.0605C108.432 9.0605 108.366 8.99442 108.366 8.76972ZM106.63 3.13911C106.749 3.13911 107.624 3.40346 107.796 3.45633C107.915 3.49598 108.286 3.5885 108.286 3.73389C108.286 3.79998 108.207 3.83963 108.167 3.86607C107.968 3.98502 107.955 4.03789 107.862 4.32868C107.823 4.47407 107.544 5.43894 107.544 5.50502C107.544 5.62398 107.637 5.70328 107.743 5.70328C107.982 5.70328 109.015 5.31998 109.28 5.21424C109.373 5.17459 109.466 5.14815 109.559 5.14815C109.824 5.14815 109.824 5.95442 109.824 6.15268C109.824 6.37737 109.797 6.56242 109.572 6.6285C108.923 6.83998 108.074 7.01181 107.398 7.14398C107.014 7.22328 106.974 7.28937 106.855 7.65946C106.259 9.44381 105.278 11.8494 104.39 13.4883C104.217 13.8055 104.111 13.9906 103.913 13.9906C103.7 13.9906 102.786 13.5676 102.786 13.2769C102.786 13.1447 102.932 12.9464 103.011 12.8407C103.846 11.6511 104.84 9.35128 105.357 7.95024C105.384 7.87094 105.463 7.67268 105.463 7.60659C105.463 7.47442 105.357 7.40833 105.225 7.40833C105.039 7.40833 104.456 7.47442 104.045 7.47442C103.78 7.47442 103.568 7.48763 103.488 7.2365C103.435 7.06468 103.382 6.46989 103.382 6.27163C103.382 6.12624 103.422 6.03372 103.581 6.03372C103.7 6.03372 104.257 6.08659 104.827 6.08659C105.675 6.08659 105.874 6.07337 105.993 5.87511C106.152 5.61076 106.471 3.85285 106.484 3.46955C106.497 3.27128 106.497 3.13911 106.63 3.13911ZM125.026 7.61981C125.159 7.17042 125.318 6.35094 125.318 5.88833C125.318 5.7165 125.252 5.70328 125.026 5.70328H124.775C124.589 5.70328 124.456 5.76937 124.456 5.96763V6.03372C124.549 6.56242 124.642 7.10433 124.814 7.61981C124.828 7.67268 124.867 7.71233 124.92 7.71233C124.973 7.71233 125.013 7.65946 125.026 7.61981ZM121.196 7.14398V7.5405C121.196 7.7652 121.328 7.88415 121.554 7.91059H121.713C121.938 7.88415 122.057 7.7652 122.084 7.5405V7.14398C122.057 6.91928 121.938 6.80033 121.713 6.77389H121.554C121.328 6.80033 121.196 6.91928 121.196 7.14398ZM121.196 4.97633V5.35963C121.196 5.58433 121.328 5.70328 121.554 5.72972H121.713C121.938 5.70328 122.057 5.58433 122.084 5.35963V4.97633C122.057 4.75163 121.938 4.63268 121.713 4.60624H121.554C121.328 4.63268 121.196 4.75163 121.196 4.97633ZM121.713 8.94155H121.554C121.302 8.94155 121.196 9.0605 121.196 9.31163V9.90641C121.196 10.0518 121.249 10.184 121.434 10.184C121.461 10.184 121.501 10.184 121.527 10.1708C121.607 10.1443 121.686 10.1311 121.753 10.1047C122.018 10.0122 122.084 9.90642 122.084 9.64207V9.31163C122.084 9.0605 121.978 8.94155 121.713 8.94155ZM116.716 8.4525C116.292 8.43929 115.881 8.47894 115.457 8.47894C115.165 8.47894 115.179 8.33355 115.179 7.87094C115.179 7.42155 115.165 7.26294 115.457 7.26294C115.841 7.26294 116.265 7.30259 116.703 7.28937C116.955 7.28937 117.074 7.18363 117.074 6.91929V6.16589C117.047 5.92798 116.981 5.82224 116.716 5.79581C116.544 5.80902 115.921 5.82224 115.828 5.82224C115.55 5.82224 115.55 5.67685 115.55 5.24068C115.55 4.77807 115.55 4.64589 115.828 4.64589C116.12 4.64589 116.411 4.67233 116.703 4.65911C116.968 4.65911 117.047 4.55337 117.074 4.30224C117.074 3.95859 117.074 3.61494 117.021 3.27129V3.13911C117.021 3.00694 117.087 2.96729 117.22 2.96729C117.405 2.96729 118.002 3.03337 118.214 3.05981C118.32 3.07302 118.519 3.07302 118.519 3.23163C118.519 3.32415 118.452 3.35059 118.36 3.41668C118.227 3.53563 118.214 3.74711 118.214 4.05111V4.30224C118.24 4.54015 118.307 4.64589 118.545 4.65911C118.678 4.65911 119.208 4.64589 119.301 4.64589C119.592 4.64589 119.579 4.77807 119.579 5.24068C119.579 5.67685 119.592 5.82224 119.314 5.82224C119.168 5.82224 118.757 5.80902 118.572 5.80902C118.32 5.80902 118.214 5.92798 118.214 6.16589V6.91929C118.214 7.17042 118.32 7.27615 118.572 7.28937C118.837 7.27615 119.181 7.26294 119.433 7.26294C119.725 7.26294 119.711 7.43476 119.711 7.87094C119.711 8.32033 119.725 8.47894 119.433 8.47894C119.009 8.47894 118.585 8.4525 118.161 8.4525H118.121C118.108 8.4525 118.094 8.4525 118.094 8.46572C118.094 8.47894 118.108 8.49215 118.121 8.49215C118.307 8.51859 118.519 8.51859 118.519 8.6772C118.519 8.76972 118.452 8.79615 118.36 8.87546C118.2 8.99442 118.2 9.25876 118.214 9.62885C118.214 9.86676 118.36 9.95928 118.585 9.95928C118.876 9.9725 119.221 9.93285 119.38 9.93285C119.672 9.93285 119.645 10.1311 119.658 10.3558C119.672 10.488 119.711 10.6069 119.871 10.6069C119.897 10.6069 119.937 10.5937 119.963 10.5937C120.096 10.5673 120.175 10.488 120.175 10.3426V4.92346C120.175 4.69876 120.069 4.63268 119.871 4.61946C119.791 4.63268 119.711 4.63268 119.632 4.63268C119.354 4.63268 119.354 4.51372 119.354 4.05111C119.354 3.5885 119.354 3.48276 119.632 3.48276C119.99 3.48276 120.348 3.5092 120.706 3.5092H122.508C122.866 3.5092 123.224 3.48276 123.595 3.48276C123.873 3.48276 123.86 3.61494 123.86 4.05111V4.17007C123.86 4.39476 123.94 4.51372 124.178 4.52694C124.324 4.54015 124.47 4.54015 124.615 4.54015H125.106C125.358 4.54015 125.596 4.52694 125.848 4.52694C126.272 4.52694 126.59 4.96311 126.59 5.37285C126.59 6.3245 126.1 8.17494 125.742 9.08694C125.716 9.17946 125.689 9.25876 125.689 9.35128C125.689 9.49668 125.729 9.56276 125.795 9.68172C126.113 10.1443 126.352 10.4219 126.763 10.8184C126.842 10.8977 126.975 11.0167 126.975 11.1356C126.975 11.3075 126.471 11.9419 126.232 11.9419C125.994 11.9419 125.371 11.1489 125.212 10.9374C125.159 10.8845 125.119 10.8316 125.026 10.8316C124.934 10.8316 124.881 10.8977 124.841 10.9506C124.695 11.1885 124.165 12.0609 123.9 12.0609C123.661 12.0609 123.171 11.5454 123.171 11.281C123.171 11.1489 123.37 10.9374 123.462 10.8184C123.767 10.4351 123.94 10.1443 124.165 9.72137C124.218 9.62885 124.258 9.53633 124.258 9.43059C124.258 9.32485 124.218 9.23233 124.178 9.12659C123.86 8.34676 123.383 6.74746 123.383 5.92798C123.383 5.84868 123.383 5.80902 123.436 5.74294C123.515 5.6372 123.568 5.57111 123.568 5.42572V5.12172C123.568 5.01598 123.568 4.91024 123.582 4.81772C123.568 4.71198 123.529 4.63268 123.409 4.63268C123.383 4.61946 123.356 4.61946 123.33 4.61946C123.197 4.63268 123.144 4.68555 123.144 4.83094V10.977C123.144 11.4925 123.171 12.008 123.171 12.5102C123.171 12.9068 123.065 12.92 122.614 12.92C122.177 12.92 122.057 12.9068 122.057 12.5367C122.057 12.1798 122.071 11.8362 122.084 11.4793C122.071 11.3339 122.004 11.2282 121.845 11.2282C121.806 11.2282 121.779 11.2282 121.739 11.2414C121.196 11.4264 120.639 11.585 120.096 11.7436C120.003 11.7833 119.99 11.8229 119.95 11.9022C119.924 11.9815 119.884 12.0609 119.791 12.0609C119.685 12.0609 119.645 11.9155 119.566 11.6908C119.552 11.6115 119.526 11.5454 119.499 11.4661C119.393 11.2282 119.327 11.1621 119.062 11.1224C118.903 11.1224 118.744 11.1092 118.585 11.1092C118.32 11.1224 118.214 11.2149 118.214 11.4793V12.5235C118.214 12.8142 118.267 12.9068 118.545 13.0125C118.929 13.1447 119.34 13.224 119.738 13.2769C120.613 13.3958 122.906 13.3958 123.887 13.3958C124.602 13.3958 125.305 13.3562 126.02 13.3297C126.193 13.3165 126.392 13.3033 126.564 13.3033C126.829 13.3033 126.869 13.5148 126.869 13.7395C126.869 14.5457 126.564 14.625 125.808 14.625H123.449C122.561 14.625 121.686 14.625 120.812 14.5986C119.937 14.5854 118.876 14.4664 118.055 14.136C117.458 13.8981 116.941 13.5015 116.557 12.9861C116.517 12.9332 116.491 12.9068 116.424 12.9068C116.358 12.9068 116.318 12.9728 116.305 13.0257C116.226 13.4619 116.08 14.1492 115.934 14.5457C115.868 14.7043 115.801 14.7836 115.616 14.7836C115.404 14.7836 114.86 14.6118 114.86 14.3342C114.86 14.2549 114.927 14.017 114.953 13.9377C115.285 12.9464 115.536 11.0299 115.536 9.9725V9.65528C115.536 9.43059 115.523 9.29842 115.709 9.29842C115.828 9.29842 116.398 9.40415 116.557 9.41737C116.65 9.43059 116.809 9.47024 116.809 9.5892C116.809 9.65528 116.743 9.69494 116.69 9.72137C116.53 9.81389 116.517 9.91963 116.517 10.2897C116.504 10.4219 116.491 10.6069 116.491 10.8316V10.977C116.491 11.1356 116.517 11.2546 116.597 11.4C116.676 11.5322 116.756 11.6511 116.835 11.7569C116.862 11.7965 116.902 11.8229 116.941 11.8229C117.034 11.8229 117.061 11.7436 117.061 11.6775V9.54955C117.061 9.29842 117.061 9.03407 117.021 8.76972C116.994 8.57146 116.941 8.4525 116.716 8.4525ZM131.044 9.76102V6.04694C131.017 5.80902 130.898 5.70329 130.673 5.67685H130.315C130.089 5.70329 129.97 5.80902 129.944 6.04694V9.76102C129.97 9.98572 130.089 10.1047 130.315 10.1311H130.673C130.898 10.1047 131.017 9.98572 131.044 9.76102ZM130.779 11.3471H130.315C130.076 11.3471 129.97 11.4396 129.957 11.6908C129.97 11.9022 129.97 12.1005 129.97 12.312C129.97 12.6292 129.851 12.6292 129.307 12.6292C128.777 12.6292 128.645 12.6292 128.645 12.312C128.645 11.8758 128.671 11.4396 128.671 11.0035V6.06015C128.671 5.7165 128.658 5.37285 128.658 5.0292C128.658 4.56659 128.897 4.43442 129.334 4.43442C129.573 4.43442 129.811 4.44763 130.063 4.44763H130.898C131.137 4.44763 131.375 4.43442 131.614 4.43442C132.051 4.43442 132.303 4.55337 132.303 5.0292C132.303 5.37285 132.29 5.7165 132.29 6.06015V10.3426C132.29 10.7788 132.303 11.2282 132.303 11.6643C132.303 11.9815 132.157 11.9815 131.68 11.9815C131.15 11.9815 131.017 11.9815 131.017 11.6643V11.585C131.017 11.4132 130.938 11.3471 130.779 11.3471ZM136.902 11.1753C136.889 11.1489 136.862 11.1224 136.809 11.1224C136.756 11.1224 136.73 11.1885 136.73 11.2414V12.4442C136.73 13.1182 136.756 13.7923 136.756 14.4664C136.756 14.8762 136.61 14.8762 136.054 14.8762C135.51 14.8762 135.338 14.8762 135.338 14.4796C135.338 13.8055 135.378 13.1182 135.378 12.4442V11.2546C135.365 11.1885 135.351 11.1224 135.272 11.1224C135.232 11.1224 135.206 11.1489 135.179 11.1753C134.45 12.2062 133.562 13.1315 132.568 13.9113C132.475 13.9774 132.356 14.0831 132.223 14.0831C131.972 14.0831 131.481 13.4619 131.481 13.2108C131.481 13.0786 131.667 12.9728 131.786 12.8803C133.019 11.9551 133.893 11.0167 134.768 9.74781C134.795 9.70815 134.821 9.6685 134.821 9.61563C134.821 9.48346 134.702 9.45702 134.596 9.44381H134.397C133.907 9.44381 133.416 9.47024 132.926 9.47024C132.594 9.47024 132.608 9.31163 132.608 8.84902C132.608 8.39963 132.594 8.21459 132.926 8.21459C133.416 8.21459 133.907 8.25424 134.397 8.25424H135.007C135.272 8.25424 135.378 8.13528 135.378 7.88415V6.8532C135.378 6.58885 135.259 6.48311 135.007 6.48311H134.689C134.225 6.48311 133.774 6.52276 133.31 6.52276C132.966 6.52276 132.979 6.3245 132.979 5.84868C132.979 5.42572 132.966 5.21424 133.31 5.21424C133.761 5.21424 134.225 5.24068 134.689 5.24068H135.007C135.272 5.24068 135.378 5.13494 135.378 4.87059V4.34189C135.378 4.01146 135.351 3.69424 135.325 3.36381C135.325 3.31094 135.312 3.27129 135.312 3.21842C135.312 3.05981 135.431 3.04659 135.563 3.04659C135.802 3.04659 136.425 3.09946 136.69 3.11268C136.809 3.12589 137.035 3.12589 137.035 3.2845C137.035 3.36381 136.968 3.40346 136.876 3.46955C136.743 3.56207 136.73 3.77355 136.73 4.14363V4.88381C136.73 5.14815 136.849 5.24068 137.101 5.24068H137.79C138.241 5.24068 138.705 5.21424 139.155 5.21424C139.513 5.21424 139.487 5.4125 139.487 5.86189C139.487 6.31129 139.513 6.52276 139.169 6.52276C138.705 6.52276 138.241 6.48311 137.79 6.48311H137.101C136.836 6.48311 136.73 6.58885 136.73 6.8532V7.88415C136.73 8.13528 136.836 8.25424 137.101 8.25424H138.227C138.718 8.25424 139.208 8.21459 139.699 8.21459C140.017 8.21459 140.017 8.38642 140.017 8.84902C140.017 9.31163 140.017 9.47024 139.699 9.47024C139.208 9.47024 138.718 9.44381 138.227 9.44381H137.525C137.419 9.45702 137.3 9.48346 137.3 9.62885C137.3 9.6685 137.313 9.70815 137.339 9.74781C138.095 11.0035 138.93 11.9551 140.057 12.8935C140.149 12.9728 140.255 13.0522 140.255 13.1843C140.255 13.4619 139.646 14.0302 139.42 14.0302C139.248 14.0302 138.877 13.6602 138.744 13.528C137.976 12.7878 137.459 12.0873 136.902 11.1753ZM146.564 6.08659C146.458 6.08659 146.22 6.17911 146.114 6.23198C144.603 6.94572 143.728 8.35998 143.728 10.0386C143.728 10.5276 143.9 11.7569 144.576 11.7569C145.239 11.7569 145.981 10.2501 146.352 8.90189C146.525 8.26746 146.776 6.95894 146.776 6.3245C146.776 6.19233 146.71 6.08659 146.564 6.08659ZM147.837 4.54015C149.136 4.54015 150.328 4.92346 151.27 5.84868C152.158 6.73424 152.608 7.8445 152.608 9.10015C152.608 10.9374 151.641 12.5102 150.024 13.3694C149.719 13.528 148.897 13.8981 148.579 13.8981C148.234 13.8981 147.691 13.0786 147.691 12.7878C147.691 12.6556 147.89 12.6292 148.022 12.6028C149.759 12.193 151.124 11.0563 151.124 9.16624C151.124 7.75198 150.382 6.48311 149.003 6.00728C148.884 5.96763 148.619 5.88833 148.499 5.88833C148.195 5.88833 148.195 6.17911 148.181 6.40381C148.036 8.33355 147.572 10.6862 146.299 12.2062C145.862 12.7349 145.279 13.224 144.55 13.224C143.741 13.224 143.105 12.6424 142.747 11.9683C142.456 11.4264 142.336 10.7127 142.336 10.0915C142.336 6.99859 144.709 4.54015 147.837 4.54015ZM157.711 5.76937H163.993C164.219 5.76937 164.338 5.6372 164.365 5.4125V4.96311C164.338 4.73842 164.219 4.61946 163.993 4.59302H157.711C157.472 4.61946 157.34 4.73842 157.34 4.96311V5.4125C157.34 5.6372 157.472 5.76937 157.711 5.76937ZM159.924 13.224H163.795C164.02 13.1975 164.139 13.0786 164.166 12.8539V12.0741C164.139 11.8494 164.02 11.7304 163.795 11.704H159.924C159.686 11.7304 159.58 11.8494 159.553 12.0741V12.8539C159.58 13.0786 159.686 13.1975 159.924 13.224ZM164.139 14.7175V14.5854C164.139 14.3871 164.047 14.2946 163.834 14.2946H159.871C159.673 14.2946 159.58 14.3871 159.58 14.5986V14.7175C159.58 14.9819 159.394 14.9687 158.917 14.9687C158.374 14.9687 158.201 14.9687 158.201 14.7175C158.201 14.5589 158.241 14.2021 158.241 13.9509V11.7833C158.241 11.5586 158.215 11.3471 158.215 11.1356C158.215 10.6598 158.639 10.6202 159.023 10.6202C159.368 10.6202 159.726 10.6466 160.084 10.6466H160.759C161.025 10.6466 161.131 10.5276 161.131 10.2765V9.65528C161.131 9.39094 161.025 9.2852 160.759 9.2852H157.671C157.406 9.2852 157.3 9.37772 157.274 9.64207C157.115 11.5322 157.022 12.6292 156.16 14.3739C155.961 14.7704 155.895 14.8894 155.67 14.8894C155.325 14.8894 154.676 14.5457 154.676 14.2946C154.676 14.2021 154.782 14.0038 154.835 13.9245C155.829 11.9551 155.975 9.87998 155.975 7.71233V5.45215C155.975 5.0292 155.948 4.61946 155.948 4.1965C155.948 3.66781 156.174 3.52242 156.677 3.52242C157.075 3.52242 157.472 3.54885 157.87 3.54885H163.834C164.206 3.54885 164.577 3.52242 164.961 3.52242C165.438 3.52242 165.69 3.65459 165.69 4.17007C165.69 4.4212 165.664 4.65911 165.664 4.91024V5.46537C165.664 5.7165 165.69 5.95442 165.69 6.20555C165.69 6.72102 165.451 6.8532 164.974 6.8532C164.59 6.8532 164.206 6.82676 163.834 6.82676H157.711C157.446 6.82676 157.34 6.94572 157.34 7.19685V7.83128C157.34 8.08242 157.446 8.18815 157.698 8.18815H160.759C161.025 8.18815 161.117 8.09563 161.131 7.8445C161.131 7.79163 161.078 7.22329 161.078 7.17042C161.078 7.01181 161.184 6.98537 161.316 6.98537C161.488 6.98537 162.337 7.03824 162.522 7.05146C162.628 7.06468 162.801 7.07789 162.801 7.22329C162.801 7.31581 162.695 7.36868 162.615 7.40833C162.469 7.48763 162.483 7.59337 162.469 7.83128C162.483 8.08242 162.575 8.18815 162.84 8.18815H164.683C165.2 8.18815 165.73 8.16172 166.26 8.16172C166.552 8.16172 166.538 8.32033 166.538 8.74328C166.538 9.16624 166.552 9.31163 166.26 9.31163C165.73 9.31163 165.213 9.2852 164.683 9.2852H162.84C162.575 9.2852 162.469 9.39094 162.469 9.65528V10.2765C162.469 10.5276 162.575 10.6466 162.84 10.6466H163.636C163.993 10.6466 164.351 10.6202 164.696 10.6202C165.041 10.6202 165.491 10.673 165.491 11.1092C165.491 11.3339 165.478 11.5586 165.478 11.7833V13.9509C165.478 14.2153 165.504 14.6118 165.504 14.7175C165.504 14.9819 165.319 14.9687 164.815 14.9687C164.325 14.9687 164.139 14.9819 164.139 14.7175ZM177.115 5.9412H174.796C174.61 5.9412 174.477 6.07337 174.477 6.25842V6.39059C174.477 6.57563 174.61 6.70781 174.796 6.70781H177.115C177.301 6.70781 177.433 6.57563 177.433 6.39059V6.25842C177.433 6.07337 177.301 5.9412 177.115 5.9412ZM174.796 5.13494H177.115C177.301 5.13494 177.433 5.00276 177.433 4.81772V4.69876C177.433 4.51372 177.301 4.38155 177.115 4.38155H174.796C174.61 4.38155 174.477 4.51372 174.477 4.69876V4.81772C174.477 5.00276 174.61 5.13494 174.796 5.13494ZM178.692 4.73842V6.35094C178.692 6.58885 178.719 6.83998 178.719 7.07789C178.719 7.52729 178.48 7.67268 178.056 7.67268C177.712 7.67268 177.38 7.64624 177.049 7.64624H174.875C174.544 7.64624 174.212 7.67268 173.881 7.67268C173.444 7.67268 173.192 7.5405 173.192 7.07789C173.192 6.82676 173.218 6.58885 173.218 6.35094V4.73842C173.218 4.48729 173.192 4.24937 173.192 4.01146C173.192 3.54885 173.43 3.41668 173.868 3.41668C174.199 3.41668 174.531 3.44311 174.875 3.44311H177.049C177.38 3.44311 177.712 3.41668 178.043 3.41668C178.467 3.41668 178.719 3.53563 178.719 4.01146C178.719 4.24937 178.692 4.5005 178.692 4.73842ZM177.579 11.1489C177.42 11.1621 177.34 11.2149 177.274 11.3603C176.731 12.616 175.723 13.9113 174.623 14.7308C174.517 14.8101 174.358 14.9422 174.239 14.9422C174.04 14.9422 173.603 14.5854 173.603 14.3739C173.603 14.2549 173.788 14.1228 173.881 14.0567C174.743 13.4883 175.684 12.3649 176.201 11.4661C176.214 11.4264 176.227 11.3868 176.227 11.3471C176.227 11.2017 176.121 11.1621 176.002 11.1489H175.896C175.67 11.1489 175.551 11.2017 175.432 11.3868C175.061 11.9815 174.623 12.5235 174.12 13.0125C173.603 13.5148 173.364 13.6734 172.768 14.0567C172.715 14.0963 172.648 14.1095 172.582 14.1095C172.383 14.1095 171.959 13.7262 171.959 13.528C171.959 13.409 172.171 13.3033 172.264 13.2372C173.073 12.7349 173.696 12.1798 174.292 11.4264C174.318 11.3868 174.345 11.3603 174.345 11.3075C174.345 11.1885 174.239 11.1621 174.146 11.1489H174.093C173.855 11.1489 173.762 11.1885 173.603 11.3471C173.126 11.8626 172.622 12.312 172.052 12.6821C171.946 12.7614 171.787 12.8803 171.654 12.8803C171.442 12.8803 171.018 12.4309 171.018 12.2195C171.018 12.1005 171.151 12.0212 171.323 11.9022C172.264 11.281 172.953 10.6202 173.563 9.6685C173.589 9.62885 173.603 9.5892 173.603 9.54955C173.603 9.43059 173.51 9.37772 173.404 9.3645C173.099 9.37772 172.569 9.39094 172.291 9.39094C171.999 9.39094 172.012 9.17946 172.012 8.80937C172.012 8.43928 171.999 8.22781 172.291 8.22781C172.794 8.22781 173.285 8.26746 173.788 8.26746H178.069C178.56 8.26746 179.063 8.22781 179.567 8.22781C179.859 8.22781 179.845 8.43928 179.845 8.80937C179.845 9.17946 179.859 9.39094 179.567 9.39094C179.063 9.39094 178.56 9.3645 178.069 9.3645H175.233C175.034 9.3645 174.968 9.41737 174.875 9.57598C174.849 9.61563 174.835 9.65528 174.809 9.69494C174.796 9.73459 174.782 9.77424 174.782 9.81389C174.782 9.94607 174.888 9.98572 175.008 9.99894H177.645C177.99 9.99894 178.334 9.9725 178.666 9.9725C179.169 9.9725 179.262 10.2236 179.262 10.673C179.262 11.5057 179.143 13.1579 178.878 13.9113C178.56 14.8101 177.844 14.8894 176.996 14.8894C176.373 14.8894 176.148 14.9026 176.148 13.8716C176.148 13.713 176.161 13.5412 176.373 13.5412C176.492 13.5412 176.704 13.5676 176.837 13.5809C176.93 13.5941 177.009 13.5941 177.102 13.5941C177.486 13.5941 177.592 13.528 177.712 13.1579C177.831 12.7482 177.924 11.8362 177.924 11.4C177.924 11.1489 177.778 11.1621 177.579 11.1489ZM169.282 10.7391C169.534 10.6334 169.6 10.5276 169.6 10.2501V7.4612C169.6 7.21007 169.507 7.11755 169.242 7.09111C168.964 7.09111 168.672 7.13076 168.42 7.13076C168.142 7.13076 168.155 6.94572 168.155 6.48311C168.155 5.99407 168.142 5.83546 168.42 5.83546C168.54 5.83546 169.07 5.84868 169.229 5.86189C169.494 5.84868 169.6 5.75615 169.6 5.49181V4.5005C169.6 4.14363 169.6 3.78676 169.56 3.45633C169.547 3.41668 169.547 3.35059 169.547 3.29772C169.547 3.15233 169.64 3.12589 169.772 3.12589C169.971 3.12589 170.766 3.19198 171.005 3.2052C171.098 3.21842 171.257 3.24485 171.257 3.37702C171.257 3.46955 171.177 3.5092 171.058 3.5885C170.925 3.66781 170.912 3.8132 170.912 4.24937V5.49181C170.912 5.75615 171.018 5.86189 171.27 5.86189C171.575 5.87511 171.866 5.83546 172.171 5.83546C172.436 5.83546 172.436 5.98085 172.436 6.48311C172.436 6.95894 172.45 7.13076 172.171 7.13076C171.972 7.13076 171.575 7.10433 171.27 7.09111C171.018 7.11755 170.912 7.21007 170.912 7.4612V9.73459C170.912 9.86676 170.965 9.99894 171.111 9.99894C171.164 9.99894 171.204 9.9725 171.243 9.95928C171.283 9.94607 171.416 9.87998 171.548 9.81389C171.813 9.68172 172.158 9.52311 172.211 9.52311C172.41 9.52311 172.45 10.2369 172.45 10.3822C172.45 10.5805 172.397 10.6862 172.224 10.7788C171.283 11.2678 170.09 11.7833 169.096 12.1798C168.871 12.2723 168.831 12.312 168.805 12.3913C168.752 12.5367 168.712 12.6424 168.606 12.6424C168.46 12.6424 168.42 12.497 168.314 12.2195C168.248 12.0609 168.009 11.4264 168.009 11.2942C168.009 11.1092 168.195 11.0828 168.341 11.0431C168.659 10.9638 168.964 10.8713 169.282 10.7391ZM185.333 4.84415H183.146C182.722 4.84415 182.284 4.87059 181.86 4.87059C181.529 4.87059 181.529 4.67233 181.529 4.1965C181.529 3.73389 181.529 3.52242 181.86 3.52242C182.284 3.52242 182.722 3.56207 183.146 3.56207H185.333C185.757 3.56207 186.194 3.52242 186.618 3.52242C186.963 3.52242 186.95 3.74711 186.95 4.1965C186.95 4.65911 186.963 4.87059 186.618 4.87059C186.194 4.87059 185.757 4.84415 185.333 4.84415ZM185.266 8.69042V7.59337C185.266 7.32902 185.16 7.22329 184.895 7.22329H183.769C183.517 7.22329 183.411 7.32902 183.411 7.59337V8.69042C183.411 8.95476 183.517 9.0605 183.769 9.0605H184.895C185.16 9.0605 185.266 8.95476 185.266 8.69042ZM183.358 10.6202C183.252 11.9815 183.079 13.0389 182.576 14.321C182.417 14.7043 182.35 14.7704 182.191 14.7704C182.019 14.7704 181.118 14.44 181.118 14.1756C181.118 14.0963 181.184 13.9906 181.211 13.9245C181.926 12.3913 182.099 10.5937 182.099 8.92833V7.48763C182.099 7.1572 182.085 6.82676 182.085 6.49633C182.085 6.0205 182.35 5.92798 182.775 5.92798C183.093 5.92798 183.424 5.95442 183.755 5.95442H184.895C185.227 5.95442 185.545 5.92798 185.876 5.92798C186.3 5.92798 186.565 6.0205 186.565 6.49633C186.565 6.82676 186.552 7.1572 186.552 7.48763V9.0605C186.552 9.47024 186.579 9.86676 186.579 10.2633C186.579 10.5805 186.433 10.5805 185.903 10.5805C185.478 10.5805 185.386 10.5805 185.293 10.488C185.213 10.3955 185.121 10.2765 185.001 10.2633H183.742C183.49 10.2633 183.384 10.369 183.358 10.6202ZM189.11 5.58433V6.82676C189.11 7.09111 189.216 7.19685 189.481 7.19685H191.191C191.708 7.19685 192.238 7.17042 192.768 7.17042C193.113 7.17042 193.086 7.30259 193.086 7.83128C193.086 8.34676 193.1 8.47894 192.768 8.47894C192.583 8.47894 192.278 8.46572 192.092 8.4525C191.827 8.47894 191.734 8.55824 191.734 8.80937V12.6953C191.734 13.2768 191.774 13.8584 191.774 14.44C191.774 14.8762 191.628 14.8762 191.072 14.8762C190.515 14.8762 190.356 14.8762 190.356 14.44C190.356 13.8584 190.396 13.2768 190.396 12.6953V8.80937C190.396 8.55824 190.29 8.43928 190.025 8.43928H189.481C189.229 8.43928 189.137 8.53181 189.097 8.79615C189.031 10.3955 188.752 11.8097 188.063 13.2769C187.877 13.6602 187.559 14.2285 187.268 14.5193C187.175 14.6118 187.095 14.6647 186.963 14.6647C186.685 14.6647 185.942 14.321 185.942 14.0699C185.942 13.9774 186.048 13.8849 186.101 13.8188C186.526 13.2901 186.83 12.8407 187.109 12.2195C187.639 10.9902 187.758 9.3645 187.758 8.04276V4.65911C187.758 4.06433 188.275 4.06433 188.62 4.03789C189.508 3.95859 191.138 3.70746 191.92 3.29772C191.973 3.27129 192.013 3.24485 192.079 3.24485C192.291 3.24485 192.583 3.65459 192.715 3.82642C192.861 4.01146 193.073 4.27581 193.073 4.39476C193.073 4.48729 192.98 4.55337 192.887 4.55337C192.808 4.55337 192.768 4.52694 192.702 4.48729C192.636 4.46085 192.569 4.43442 192.503 4.43442C192.424 4.43442 192.251 4.48729 192.172 4.51372C191.204 4.79129 190.621 4.91024 189.587 5.05563C189.176 5.1085 189.11 5.12172 189.11 5.58433Z" fill="white"/>
<path d="M23.2663 19.676C25.0226 14.0998 29.522 9.81039 35.187 8.31162L39.9118 7.0616C42.6157 6.34623 45.4907 6.67523 47.9618 7.98279C50.7883 9.47839 52.8302 12.1175 53.5639 15.2233L55.9813 25.4566C56.6576 28.3198 56.3414 31.327 55.0843 33.9879C53.5992 37.1312 50.9154 39.5517 47.6306 40.7104L44.8304 41.6982C41.2833 42.9494 37.4133 42.9494 33.8662 41.6982C28.993 39.9791 25.2144 36.0742 23.6654 31.1561L23.2663 29.8891C22.2192 26.5648 22.2192 23.0003 23.2663 19.676Z" stroke="white" stroke-width="6" stroke-linecap="round"/>
<path d="M40.1768 44.6086C40.1768 51.7474 40.1768 55.7498 40.1768 62.8886M40.1768 44.6086L0.828613 56.6134M40.1768 44.6086L121.773 60.7173M40.1768 62.8886L10.355 74.3478M40.1768 62.8886L136.683 74.3478" stroke="white" stroke-width="3" stroke-dasharray="10 10"/>
</svg>
